<?xml version="1.0" standalone="no"?><!DOCTYPE svg PUBLIC "-//W3C//DTD SVG 1.1//EN" "http://www.w3.org/Graphics/SVG/1.1/DTD/svg11.dtd"><svg t="1592788384497" class="icon" viewBox="0 0 1024 1024" version="1.1" xmlns="http://www.w3.org/2000/svg" p-id="1992" xmlns:xlink="http://www.w3.org/1999/xlink" width="300" height="300"><defs><style type="text/css"></style></defs><path d="M926.7674941 374.58836523H548.72396224v-36.47173194h378.04353186v36.47173194zM926.7674941 547.47840339H548.72396224v-36.47173194h378.04353186v36.47173194zM926.7674941 720.01775235H110.36179565V683.54601918h816.40569845v36.47173317z" fill="#bfbfbf" p-id="1993"></path><path d="M960.08301845 877.82813213h-894.25881832c-33.66621476 0-60.66932392-27.35379957-60.66932392-60.66932392V240.62488702c0-33.66621476 27.35379957-60.66932392 60.66932392-60.66932392h894.25881832c33.66621476 0 60.66932392 27.35379957 60.66932392 60.66932392V816.80811779c0.35068918 33.66621476-27.00310915 61.0200131-60.66932392 61.02001434zM65.82420013 202.04901627c-21.39207357 0-38.57587075 17.18379718-38.57587075 38.57587075V816.80811779c0 21.39207357 17.18379718 38.57587075 38.57587075 38.57587075h894.25881832c21.39207357 0 38.57587075-17.18379718 38.57587075-38.57587075V240.62488702c0-21.39207357-17.18379718-38.57587075-38.57587075-38.57587075h-894.25881832z" fill="#bfbfbf" p-id="1994"></path><path d="M365.31323129 544.67288498c24.19759198-24.54828116 37.52380196-56.46104753 37.52380196-90.82864067 0-71.89139509-59.61725513-130.4565802-133.26209862-130.45658021s-133.26209862 58.56518511-133.26209861 130.45658021c0 34.36759437 13.32620998 66.28035951 37.52380073 90.82864067l-4.90965599 30.51000716c-0.7013796 3.50689678 1.05206879 6.66310438 3.8575872 8.416554 1.75344839 1.05206879 3.1562076 1.75344839 4.90965598 2.10413758 1.05206879 2.10413881 3.1562076 3.8575872 5.61103559 4.20827761 0.7013796 0 1.40275921 0.35068918 2.10413881 0.35068919 1.05206879 2.80551841 3.50689678 4.90965599 6.66310561 5.2603464 1.05206879 0.35068918 2.10413881 0.35068918 3.15620759 0.7013796v0.35068919c1.40275921 2.80551841 4.20827638 4.5589668 7.36448398 4.90965599l16.48241758 1.4027592c3.1562076 0.35068918 6.31241519-1.40275921 8.06586358-3.8575872h2.454828c3.50689678 2.45482799 7.7151744 2.45482799 9.46862278 2.454828h0.70137961c1.75344839 0.7013796 3.8575872 0.7013796 5.961726 0.35069041h1.05206879l12.62483038 1.40275921h1.05206879c1.40275921 0 2.45482799-0.35068918 3.8575872-0.7013796 4.20827638 0.35068918 7.36448398 0.35068918 11.57276159 0 1.40275921 0.7013796 3.1562076 1.05206879 4.5589668 0.7013796l12.62483039-1.40275921h0.70137837c1.75344839 0.35068918 3.1562076 0.35068918 4.90965721-0.35069041h1.75344839c2.10413881 0 6.31241519-0.35068918 9.81931198-2.454828h2.45482799c1.75344839 2.45482799 4.90965599 4.20827638 8.06586481 3.8575872l15.78103798-1.4027592c2.10413881 0 4.20827638-1.05206879 5.61103559-2.454828 0.7013796-0.7013796 1.40275921-1.75344839 2.10413757-2.45482799 1.05206879-0.35068918 2.45482799-0.35068918 3.50689802-0.7013796 3.1562076-0.7013796 5.61103559-2.80551841 6.66310437-5.26034517 0.7013796 0 1.40275921-0.35068918 2.10413881-0.35069042 2.45482799-0.7013796 4.5589668-2.10413881 5.61103559-4.20827638 1.40275921-0.35068918 3.1562076-1.05206879 4.90965599-2.10413881 2.80551841-1.75344839 4.20827638-5.2603464 3.85758719-8.41655277l-5.61103558-30.86069758z m-47.34311394-125.19623381l5.26034641-10.87138199 2.80551717 11.5727616h10.871382l-8.76724319 5.61103559c0.7013796 3.50689678 1.40275921 7.7151744 2.10413881 11.57276036-2.80551841-2.80551841-5.96172601-4.90965599-8.76724318-7.01379356-3.50689678 2.10413881-7.36448398 3.50689678-10.17000239 5.61103559l3.50689678-10.17000239-8.06586358-6.3124152c3.8575872-0.7013796 7.36448398 0 11.22207117 0z m-14.72896919 41.73207835l-10.87138076-2.80551841-5.961726 9.46862279-1.40275921-10.871382c-2.80551841-1.40275921-6.66310438-2.10413881-10.17000239-2.80551717l10.17000239-4.20827762c0-3.50689678-0.7013796-7.01379479-0.7013796-10.87138076l7.36448521 7.71517316 10.17000239-2.80551717-5.2603464 8.76724318c2.45482799 2.45482799 4.5589668 5.2603464 6.66310437 8.416554z m-41.03069874-66.63104992l7.36448521-21.39207357 7.36448398 21.39207357h22.09345317l-18.23586597 12.9755208v0.7013796l5.961726 18.58655515-16.83310799-11.57276159-16.83310677 11.57276159 5.96172477-18.58655515v-0.7013796l-18.23586597-12.9755208h21.39207357z m-24.89897035 49.44725274l10.17000239 2.80551717 7.36448398-7.71517316c0 3.50689678-0.7013796 7.01379479-0.7013796 10.87138076l10.17000239 4.20827762c-3.50689678 0.7013796-7.36448398 1.40275921-10.17000239 2.80551717l-1.40275921 10.871382-6.66310437-9.46862279-10.17000239 2.80551841c2.10413881-2.80551841 4.5589668-5.61103559 6.66310561-8.76724318l-5.26034641-8.416554z m-24.19759197-23.84690156l2.1041388-11.5727616 5.96172478 10.87138199c3.50689678 0 7.36448398-0.7013796 10.87138199 0l-8.06586358 6.3124152 3.50689678 10.17000239c-2.80551841-2.10413881-6.66310438-3.50689678-10.17000116-5.61103559-2.80551841 2.10413881-5.96172601 4.20827638-8.76724441 7.01379356 0.7013796-3.50689678 1.40275921-7.7151744 2.1041388-11.57276036l-8.76724318-5.61103559h11.22207118z m121.68933702 124.4948542a113.97416262 113.97416262 0 0 1-65.22828949 20.34000477c-23.49621237 0-46.29104515-7.01379479-65.22829072-20.34000477-2.80551841-1.75344839-3.1562076-5.61103559-1.4027592-8.06586359 1.75344839-2.45482799 5.61103559-3.1562076 8.416554-1.4027592 17.18379718 11.92345078 37.52380196 18.23586597 58.56518511 18.2358672s41.38138793-6.31241519 58.56518511-18.2358672c2.80551841-1.75344839 6.31241519-1.40275921 8.416554 1.4027592 1.40275921 2.80551841 0.7013796 6.31241519-2.10413881 8.06586359z" fill="#bfbfbf" p-id="1995"></path><path d="M365.31323129 544.67288498c24.19759198-24.54828116 37.52380196-56.46104753 37.52380196-90.82864067 0-71.89139509-59.61725513-130.4565802-133.26209862-130.45658021s-133.26209862 58.56518511-133.26209861 130.45658021c0 34.36759437 13.32620998 66.28035951 37.52380073 90.82864067l-4.90965599 30.51000716c-0.7013796 3.50689678 1.05206879 6.66310438 3.8575872 8.416554 1.75344839 1.05206879 3.1562076 1.75344839 4.90965598 2.10413758 1.05206879 2.10413881 3.1562076 3.8575872 5.61103559 4.20827761 0.7013796 0 1.40275921 0.35068918 2.10413881 0.35068919 1.05206879 2.80551841 3.50689678 4.90965599 6.66310561 5.2603464 1.05206879 0.35068918 2.10413881 0.35068918 3.15620759 0.7013796v0.35068919c1.40275921 2.80551841 4.20827638 4.5589668 7.36448398 4.90965599l16.48241758 1.4027592c3.1562076 0.35068918 6.31241519-1.40275921 8.06586358-3.8575872h2.454828c3.50689678 2.45482799 7.7151744 2.45482799 9.46862278 2.454828h0.70137961c1.75344839 0.7013796 3.8575872 0.7013796 5.961726 0.35069041h1.05206879l12.62483038 1.40275921h1.05206879c1.40275921 0 2.45482799-0.35068918 3.8575872-0.7013796 4.20827638 0.35068918 7.36448398 0.35068918 11.57276159 0 1.40275921 0.7013796 3.1562076 1.05206879 4.5589668 0.7013796l12.62483039-1.40275921h0.70137837c1.75344839 0.35068918 3.1562076 0.35068918 4.90965721-0.35069041h1.75344839c2.10413881 0 6.31241519-0.35068918 9.81931198-2.454828h2.45482799c1.75344839 2.45482799 4.90965599 4.20827638 8.06586481 3.8575872l15.78103798-1.4027592c2.10413881 0 4.20827638-1.05206879 5.61103559-2.454828 0.7013796-0.7013796 1.40275921-1.75344839 2.10413757-2.45482799 1.05206879-0.35068918 2.45482799-0.35068918 3.50689802-0.7013796 3.1562076-0.7013796 5.61103559-2.80551841 6.66310437-5.26034517 0.7013796 0 1.40275921-0.35068918 2.10413881-0.35069042 2.45482799-0.7013796 4.5589668-2.10413881 5.61103559-4.20827638 1.40275921-0.35068918 3.1562076-1.05206879 4.90965599-2.10413881 2.80551841-1.75344839 4.20827638-5.2603464 3.85758719-8.41655277l-5.61103558-30.86069758z m-47.34311394-125.19623381l5.26034641-10.87138199 2.80551717 11.5727616h10.871382l-8.76724319 5.61103559c0.7013796 3.50689678 1.40275921 7.7151744 2.10413881 11.57276036-2.80551841-2.80551841-5.96172601-4.90965599-8.76724318-7.01379356-3.50689678 2.10413881-7.36448398 3.50689678-10.17000239 5.61103559l3.50689678-10.17000239-8.06586358-6.3124152c3.8575872-0.7013796 7.36448398 0 11.22207117 0z m-14.72896919 41.73207835l-10.87138076-2.80551841-5.961726 9.46862279-1.40275921-10.871382c-2.80551841-1.40275921-6.66310438-2.10413881-10.17000239-2.80551717l10.17000239-4.20827762c0-3.50689678-0.7013796-7.01379479-0.7013796-10.87138076l7.36448521 7.71517316 10.17000239-2.80551717-5.2603464 8.76724318c2.45482799 2.45482799 4.5589668 5.2603464 6.66310437 8.416554z m-41.03069874-66.63104992l7.36448521-21.39207357 7.36448398 21.39207357h22.09345317l-18.23586597 12.9755208v0.7013796l5.961726 18.58655515-16.83310799-11.57276159-16.83310677 11.57276159 5.96172477-18.58655515v-0.7013796l-18.23586597-12.9755208h21.39207357z m-24.89897035 49.44725274l10.17000239 2.80551717 7.36448398-7.71517316c0 3.50689678-0.7013796 7.01379479-0.7013796 10.87138076l10.17000239 4.20827762c-3.50689678 0.7013796-7.36448398 1.40275921-10.17000239 2.80551717l-1.40275921 10.871382-6.66310437-9.46862279-10.17000239 2.80551841c2.10413881-2.80551841 4.5589668-5.61103559 6.66310561-8.76724318l-5.26034641-8.416554z m-24.19759197-23.84690156l2.1041388-11.5727616 5.96172478 10.87138199c3.50689678 0 7.36448398-0.7013796 10.87138199 0l-8.06586358 6.3124152 3.50689678 10.17000239c-2.80551841-2.10413881-6.66310438-3.50689678-10.17000116-5.61103559-2.80551841 2.10413881-5.96172601 4.20827638-8.76724441 7.01379356 0.7013796-3.50689678 1.40275921-7.7151744 2.1041388-11.57276036l-8.76724318-5.61103559h11.22207118z m121.68933702 124.4948542a113.97416262 113.97416262 0 0 1-65.22828949 20.34000477c-23.49621237 0-46.29104515-7.01379479-65.22829072-20.34000477-2.80551841-1.75344839-3.1562076-5.61103559-1.4027592-8.06586359 1.75344839-2.45482799 5.61103559-3.1562076 8.416554-1.4027592 17.18379718 11.92345078 37.52380196 18.23586597 58.56518511 18.2358672s41.38138793-6.31241519 58.56518511-18.2358672c2.80551841-1.75344839 6.31241519-1.40275921 8.416554 1.4027592 1.40275921 2.80551841 0.7013796 6.31241519-2.10413881 8.06586359z" fill="#bfbfbf" p-id="1996"></path></svg>